<svg width="20" height="20" viewBox="0 0 20 20" fill="none" xmlns="http://www.w3.org/2000/svg">
<path d="M0.833336 0.833374L19.1667 19.1667" stroke="white" stroke-width="1.5" stroke-linecap="round" stroke-linejoin="round"/>
<path d="M12.7333 12.7333C12.4568 13.1375 12.0945 13.4758 11.6723 13.7241C11.2502 13.9725 10.7785 14.1247 10.2908 14.17C9.80311 14.2153 9.31144 14.1526 8.85075 13.9863C8.39006 13.8201 7.97168 13.5543 7.62535 13.208C7.27903 12.8617 7.01328 12.4433 6.847 11.9826C6.68073 11.5219 6.61802 11.0302 6.66334 10.5425C6.70866 10.0549 6.86088 9.58317 7.10919 9.16101C7.3575 8.73884 7.6958 8.37658 8.1 8.1M17.5 17.5H2.5C2.05797 17.5 1.63405 17.3244 1.32149 17.0118C1.00893 16.6993 0.833336 16.2754 0.833336 15.8333V6.66667C0.833336 6.22464 1.00893 5.80072 1.32149 5.48816C1.63405 5.17559 2.05797 5 2.5 5H5L17.5 17.5ZM7.5 2.5H12.5L14.1667 5H17.5C17.942 5 18.366 5.17559 18.6785 5.48816C18.9911 5.80072 19.1667 6.22464 19.1667 6.66667V14.45L7.5 2.5Z" stroke="white" stroke-width="1.5" stroke-linecap="round" stroke-linejoin="round"/>
</svg>
