<svg width="22" height="22" viewBox="0 0 22 22" fill="none" xmlns="http://www.w3.org/2000/svg">
<path d="M11 11.8164C9.23091 11.8164 7.79163 10.3773 7.79163 8.608C7.79163 6.8389 9.23091 5.39978 11 5.39978C12.7691 5.39978 14.2084 6.8389 14.2084 8.608C14.2084 10.3773 12.7691 11.8164 11 11.8164ZM11 6.77478C9.98891 6.77478 9.16663 7.59689 9.16663 8.608C9.16663 9.61911 9.98891 10.4414 11 10.4414C12.0111 10.4414 12.8334 9.61911 12.8334 8.608C12.8334 7.59689 12.0111 6.77478 11 6.77478Z" fill="white"/>
<path d="M11.2291 19.3789C4.93251 19.3789 0 16.8627 0 13.6498C0 12.7844 0.143005 12.1308 0.874481 11.3543C1.13582 11.0775 1.57021 11.0656 1.84715 11.3251C2.12292 11.5854 2.13669 12.0208 1.87636 12.2976C1.44734 12.7515 1.375 13.0338 1.375 13.6498C1.375 15.7526 5.33501 18.0039 11.2291 18.0039C11.6086 18.0039 11.9166 18.3119 11.9166 18.6914C11.9166 19.0709 11.6086 19.3789 11.2291 19.3789Z" fill="white"/>
<path d="M13.0946 19.256C12.7481 19.256 12.4502 18.9948 12.4116 18.6419C12.3713 18.2642 12.6436 17.926 13.0222 17.8847C17.5697 17.3953 20.625 15.4189 20.625 13.8789C20.625 13.0979 20.4783 12.8403 20.054 12.2086C19.8422 11.8934 19.9256 11.4663 20.2418 11.2544C20.5562 11.0418 20.9844 11.1262 21.196 11.4424C21.6957 12.1877 22 12.7229 22 13.8789C22 16.4419 18.2857 18.7014 13.1689 19.2515C13.1441 19.2542 13.1194 19.256 13.0946 19.256Z" fill="white"/>
<path d="M17.1875 14.5664H4.8125C3.67484 14.5664 2.75 13.6416 2.75 12.5039V5.62891C2.75 4.49124 3.67484 3.56641 4.8125 3.56641H6.90891L7.84029 1.7028C8.11337 1.15646 8.66341 0.816406 9.27487 0.816406H12.7251C13.3366 0.816406 13.8866 1.15646 14.1597 1.7028L15.0911 3.56641H17.1875C18.3252 3.56641 19.25 4.49124 19.25 5.62891V12.5039C19.25 13.6416 18.3252 14.5664 17.1875 14.5664ZM4.8125 4.94141C4.433 4.94141 4.125 5.2494 4.125 5.62891V12.5039C4.125 12.8834 4.433 13.1914 4.8125 13.1914H17.1875C17.567 13.1914 17.875 12.8834 17.875 12.5039V5.62891C17.875 5.2494 17.567 4.94141 17.1875 4.94141H14.6666C14.4063 4.94141 14.1679 4.79387 14.0516 4.56107L12.9296 2.31796C12.8911 2.23991 12.8122 2.19141 12.7251 2.19141H9.27487C9.18776 2.19141 9.10887 2.23991 9.06943 2.31796L7.94838 4.56107C7.83206 4.79387 7.59372 4.94141 7.33339 4.94141H4.8125Z" fill="white"/>
<path d="M8.93751 21.2123C8.73592 21.2123 8.53602 21.1242 8.4004 20.9547C8.1629 20.6577 8.21056 20.2259 8.50765 19.9885L10.1282 18.6914L8.50765 17.3943C8.21157 17.157 8.1639 16.7251 8.4004 16.4282C8.6369 16.1321 9.0686 16.0836 9.36652 16.3209L11.6581 18.1543C11.8213 18.2854 11.9166 18.4825 11.9166 18.6914C11.9166 18.9004 11.8213 19.0975 11.6591 19.2277L9.36736 21.0611C9.23997 21.1628 9.08874 21.2123 8.93751 21.2123Z" fill="white"/>
</svg>
